# xmcd
#
# Track frame offsets:
#       150
#       13534
#       24812
#       37805
#       53237
#       64395
#       76655
#       92356
#       107076
#       117445
#
# Disc length: 1732 seconds
#
# Revision: 0
# Processed by: cddbd v1.5.2PL0 Copyright (c) Steve Scherf et al.
# Submitted via: WhereIsIt 3.26
#
DISCID=6a06c20a
DTITLE=Various Artist - Country Classics Hits Of The 1971
DYEAR=1900
DGENRE=
TTITLE0=Johnny Paycheck - She's All I Got
TTITLE1=Connie Smith - Just One Time
TTITLE2=Faron Young - It's Four in the Morning
TTITLE3=Red Simpson - I'm a Truck
TTITLE4=Don Gibson - Country Green
TTITLE5=Lynn Andersen - How Can I Love You
TTITLE6=Ray Price - I Won't Mention It Again
TTITLE7=Jody Miller - Baby I'm Yours
TTITLE8=David Houston - A Woman Always Knows
TTITLE9=Dickey Lee - Never Ending Song Of Love
EXTD=
EXTT0=
EXTT1=
EXTT2=
EXTT3=
EXTT4=
EXTT5=
EXTT6=
EXTT7=
EXTT8=
EXTT9=
PLAYORDER=
